<svg xmlns="http://www.w3.org/2000/svg" xmlns:xlink="http://www.w3.org/1999/xlink" width="207" height="124" version="1.1"><rect id="backgroundrect" width="100%" height="100%" x="0" y="0" fill="none" stroke="none"/>
    <!-- Generator: Sketch 51.2 (57519) - http://www.bohemiancoding.com/sketch -->
    <title>next-black</title>
    <desc>Created with Sketch.</desc>
    <defs/>
    
<g class="currentLayer" style=""><title>Layer 1</title><g id="Page-1" stroke="none" stroke-width="1" fill="#ffffff" fill-rule="evenodd" class="selected" fill-opacity="1">
        <g id="Black-Next.js" fill="#ffffff" fill-rule="nonzero" fill-opacity="1">
            <g id="next-black" fill="#ffffff" fill-opacity="1">
                <g id="EXT-+-Type-something" fill="#ffffff" fill-opacity="1">
                    <path d="M48.9421964,32.6320058 L87.90115850000001,32.6320058 L87.90115850000001,35.7136421 L52.51343450000002,35.7136421 L52.51343450000002,58.907010299999996 L85.7908813,58.907010299999996 L85.7908813,61.98864660000001 L52.51343450000002,61.98864660000001 L52.51343450000002,87.4526941 L88.30698100000001,87.4526941 L88.30698100000001,90.5343303 L48.9421964,90.5343303 L48.9421964,32.6320058 zM91.3912326,32.6320058 L95.53062210000002,32.6320058 L113.87380000000002,58.0960534 L132.622801,32.6320058 L158.124498,0.2868098110000119 L116.22757000000001,60.7722112 L137.817329,90.5343303 L133.51561,90.5343303 L113.87380000000002,63.44836910000001 L94.1508254,90.5343303 L89.9302715,90.5343303 L111.682358,60.7722112 L91.3912326,32.6320058 zM139.359455,35.71364199999999 L139.359455,32.6320058 L183.756439,32.6320058 L183.756439,35.7136421 L163.302983,35.7136421 L163.302983,90.5343303 L159.731745,90.5343303 L159.731745,35.7136421 L139.359455,35.71364199999999 z" id="EXT" fill="#ffffff" fill-opacity="1"/>
                    <polygon id="Type-something" points="0.2029266357421875,32.63200378417969 4.6669769287109375,32.63200378417969 66.22357177734375,124.30308532714844 40.78517150878906,90.53433227539062 3.936492919921875,37.01116943359375 3.7741546630859375,90.53433227539062 0.2029266357421875,90.53433227539062 " fill="#ffffff" fill-opacity="1"/>
                </g>
                <path d="M183.396622,86.5227221 C184.134938,86.5227221 184.673474,85.9601075 184.673474,85.233037 C184.673474,84.5059658 184.134938,83.9433513 183.396622,83.9433513 C182.666993,83.9433513 182.11977,84.5059658 182.11977,85.233037 C182.11977,85.9601075 182.666993,86.5227221 183.396622,86.5227221 zM186.905793,83.1297235 C186.905793,85.2763149 188.460599,86.678523 190.727662,86.678523 C193.142388,86.678523 194.601647,85.233037 194.601647,82.7229099 L194.601647,73.8855335 L192.655968,73.8855335 L192.655968,82.7142542 C192.655968,84.1078073 191.952397,84.8521899 190.710289,84.8521899 C189.598473,84.8521899 188.842785,84.1597409 188.816727,83.1297235 L186.905793,83.1297235 zM197.146664,83.0172011 C197.285642,85.2503478 199.153145,86.678523 201.932686,86.678523 C204.903321,86.678523 206.762139,85.1811034 206.762139,82.792155 C206.762139,80.9138876 205.702439,79.8752151 203.131364,79.2779777 L201.750279,78.9404092 C200.117298,78.5595622 199.457158,78.0488813 199.457158,77.1573541 C199.457158,76.0321243 200.482113,75.296398 202.019547,75.296398 C203.478806,75.296398 204.48639,76.0148135 204.668797,77.1660091 L206.562359,77.1660091 C206.44944,75.0626962 204.590622,73.5825873 202.045605,73.5825873 C199.309495,73.5825873 197.48542,75.0626962 197.48542,77.2871878 C197.48542,79.1221767 198.519063,80.2127835 200.786126,80.7407758 L202.401734,81.1302779 C204.060773,81.5197807 204.790402,82.091051 204.790402,83.0431676 C204.790402,84.1510859 203.643842,84.9560573 202.08035,84.9560573 C200.403939,84.9560573 199.240006,84.2030196 199.074971,83.0172011 L197.146664,83.0172011 z" id=".JS" fill="#ffffff" fill-opacity="1"/>
            </g>
        </g>
    </g></g></svg>