<svg xmlns="http://www.w3.org/2000/svg" width="231.468" height="56" style=""><rect id="backgroundrect" width="100%" height="100%" x="0" y="0" fill="none" stroke="none"/>
  
<g class="currentLayer" style=""><title>Layer 1</title><g id="Group_35" data-name="Group 35" class="selected" fill="#ffffff" fill-opacity="1">
    <path id="Path_1" data-name="Path 1" d="M34.97500238037111,12.57799145507812 a10.523,10.523 0 0 0 -8.014,4.014 V-0.000008544921854536373 h-3.979 v41.794 h3.979 V24.570991455078115 a8.014,8.014 0 0 1 16.028,0 v17.223 h3.9779999999999998 V24.570991455078115 A11.993,11.993 0 0 0 34.97500238037111,12.57799145507812 z" fill="#ffffff" fill-opacity="1"/>
    <path id="Path_2" data-name="Path 2" d="M104.3120019989014,-0.000008544921854536373 a21.067,21.067 0 1 0 21.1,21.066 A21.039,21.039 0 0 0 104.3120019989014,-0.000008544921854536373 zm0.009000000000000006,35.046 a13.979,13.979 0 1 1 14,-13.98 A13.962,13.962 0 0 1 104.32200199890138,35.04599145507814 z" fill="#ffffff" fill-opacity="1"/>
    <path id="Path_3" data-name="Path 3" d="M10.056002807617176,5.5299915180206085 h-3.979 v7.9 h-6.081 v3.7520000000000002 h6.081 V33.94899151802065 c0,5.57 3.467,8.185 8.07,8.185 a11.812,11.812 0 0 0 4.207,-0.7400000000000002 v-3.581 a11.815,11.815 0 0 1 -3.581,0.6250000000000002 c-3.014,0 -4.718,-1.193 -4.718,-4.831 V17.18299151802063 H18.356002807617188 v-3.7520000000000002 h-8.3 z" fill="#ffffff" fill-opacity="1"/>
    <path id="Path_4" data-name="Path 4" d="M65.68500193786622,12.727991600036603 a14.386,14.386 0 0 0 -14.72,14.778 c0,8.185 5.683,14.778 14.607,14.778 c5.911,0 10.117,-2.6710000000000003 12.617,-6.934 l-3.3,-1.99 a9.872,9.872 0 0 1 -9.313,5.23 a10.191,10.191 0 0 1 -10.516,-10.4 h23.985 v-1.079 C78.98500193786623,18.013991600036604 73.07400193786623,12.727991600036603 65.68500193786622,12.727991600036603 zm-10.288,11.937 a10.092,10.092 0 0 1 10.118,-8.242 a9.163,9.163 0 0 1 9.377,8.242 z" fill="#ffffff" fill-opacity="1"/>
    <rect id="Rectangle_27" data-name="Rectangle 27" width="7.0879998207092285" height="29.950000762939453" y="11.816986083984375" x="153.3660125732422" fill="#ffffff" fill-opacity="1"/>
    <circle id="Ellipse_1" data-name="Ellipse 1" cx="156.90999555587769" cy="4.499000072479248" r="4.499000072479248" fill="#ffffff" fill-opacity="1"/>
    <path id="Path_5" data-name="Path 5" d="M144.2420016784668,11.201991222381594 a4.5,4.5 0 1 0 4.5,4.5 A4.5,4.5 0 0 0 144.2420016784668,11.201991222381594 z" fill="#ffffff" fill-opacity="1"/>
    <rect id="Rectangle_28" data-name="Rectangle 28" width="7.0879998207092285" height="29.950000762939453" y="11.816986083984375" x="130.03199768066406" fill="#ffffff" fill-opacity="1"/>
    <path id="Path_6" data-name="Path 6" d="M189.53300460815427,14.933991348266602 A13.774000000000001,13.774000000000001 0 0 0 180.51800460815429,11.24699134826659 a15.441,15.441 0 1 0 0,30.882 a13.658,13.658 0 0 0 9.013,-3.6830000000000007 v2.107 a9.006,9.006 0 0 1 -16.73,4.638 l-5.518,3.317 a15.441,15.441 0 0 0 28.676000000000002,-7.954 V11.815991348266607 h-6.428 zM180.51800460815429,35.703991348266584 a9.012,9.012 0 1 1 9.013,-9.013 A9.012,9.012 0 0 1 180.51800460815429,35.703991348266584 z" fill="#ffffff" fill-opacity="1"/>
    <path id="Path_7" data-name="Path 7" d="M216.02500396728516,11.24699134826659 a15.441,15.441 0 1 0 15.442,15.44 A15.441,15.441 0 0 0 216.02500396728516,11.24699134826659 zm0,24.453 a9.012,9.012 0 1 1 9.013,-9.013 A9.011,9.011 0 0 1 216.02500396728516,35.703991348266584 z" fill="#ffffff" fill-opacity="1"/>
  </g></g></svg>